<?xml version="1.0" standalone="no"?><!DOCTYPE svg PUBLIC "-//W3C//DTD SVG 1.1//EN" "http://www.w3.org/Graphics/SVG/1.1/DTD/svg11.dtd"><svg t="1781319175567" class="icon" viewBox="0 0 1255 1024" version="1.1" xmlns="http://www.w3.org/2000/svg" p-id="14279" xmlns:xlink="http://www.w3.org/1999/xlink" width="245.1171875" height="200"><path d="M1232.101558 16.74726c28.832912 0-49.37852 19.337043-65.780475 73.204519s0 137.08582 0 137.08582l0.517956 73.204519L903.371833 89.951779S1203.441299 16.74726 1232.101558 16.74726z" fill="#FFFFFF" p-id="14280"></path><path d="M1183.931604 335.117855l-317.679987-253.280728 33.149216-8.114652C949.815266 61.291519 1202.923342 0 1232.101558 0c12.430956 0 19.854999 4.488956 22.444782 13.466869 3.798348 13.639521-7.596695 20.545608-18.473782 27.10639-15.883999 9.495869-45.40752 27.279042-53.694824 54.21278-15.020738 49.205867 0.345304 128.107908 0.345305 128.971169l0.345304 1.553869 0.863261 109.806778z m-243.439555-237.051424L1149.919127 265.193728l-0.172652-36.602259c-2.244478-12.430956-15.711347-89.951779 0.690609-143.473951 5.006913-16.574608 14.848086-30.214129 25.725172-41.43652-60.60091 12.948912-157.976732 35.738998-235.670207 54.385433z" fill="#C69C6D" p-id="14281"></path><path d="M23.191088 16.74726C-5.641824 16.74726 72.569608 36.084303 88.971563 89.951779s0 137.08582 0 137.08582l-0.517956 73.204519L352.093465 89.951779S52.024 16.74726 23.191088 16.74726z" fill="#FFFFFF" p-id="14282"></path><path d="M71.533695 335.117855l0.690608-109.806778 0.345305-1.553869c0.172652-0.863261 15.366043-79.765301 0.345304-128.971169C64.80026 67.852301 35.104087 50.069128 19.220088 40.573259 8.343002 34.012477-3.052041 27.279042 0.746306 13.639521 3.336089 4.661608 10.760132 0 23.191088 0c29.350868 0 282.458945 61.291519 332.873377 73.722475l33.149216 8.114652-317.679986 253.280728z m34.185129-106.526386l-0.172653 36.602259 209.427078-167.127297C237.279774 79.419997 139.903953 56.629911 79.303042 43.680998c10.877086 11.049739 20.71826 24.68926 25.725173 41.43652 16.401956 53.522172 2.935087 131.042994 0.690609 143.473951z" fill="#C69C6D" p-id="14283"></path><path d="M366.250943 100.310909S112.106954 38.328781 49.088913 28.487607c65.089867 50.587085 148.135559 114.468386 208.563817 158.322037l108.598213-86.498735zM889.214355 100.310909s254.143989-61.982128 317.16203-71.823302c-65.089867 50.587085-148.135559 114.468386-208.563817 158.494689L889.214355 100.310909z" fill="#C69C6D" p-id="14284"></path><path d="M218.288036 156.422863l-4.834261 1.035913 2.589783-1.381217L46.49913 15.020738l46.270781 45.234868L25.090262 9.495869l63.881301 55.421346L29.061262 27.624347l67.334345 50.24178-37.120216-19.337043-8.632609-5.352217 3.798348 2.935087-3.107739-1.726522 5.179565 3.280392 39.709998 30.041477-65.435171-35.738999 59.564998 39.01939-35.911651-18.646434-8.80526-4.661609 3.798347 2.589783 2.244478 1.381217 16.747261 10.704434-32.63126-13.812173L78.094477 91.505648 26.126175 68.197606l50.759737 27.796999-14.33013-4.661609-11.567695-4.834261-8.977913-3.798347 3.971 2.071826 2.244478 1.208565 17.265217 9.323217-33.149216-11.049739 43.335694 19.164391-52.658911-18.646434 51.79565 23.308042-14.157478-3.280391-11.740347-3.971-9.323217-3.107739 4.143652 1.899174 2.41713 1.035913 17.610521 7.596695L30.442479 100.138257l44.026302 15.538695-53.004215-14.157478 52.658911 18.819086-14.33013-2.071826-11.740347-2.935087-9.323217-2.244478 4.143652 1.381217 2.41713 0.863261 17.955826 6.215478-33.321869-5.179565L74.296129 127.935255l-53.004215-9.495869L74.296129 132.596864l-13.984825-0.863261-11.913-1.899174-9.150565-1.381217 4.143652 1.035913 2.417131 0.517956L63.764347 134.66869l-32.803912-2.41713 44.198955 7.941999L22.500479 135.186646l53.176868 9.668522-13.812174 0.172652-11.740347-0.690609-9.150565-0.690608 4.316304 0.690608 2.417131 0.345305 17.783173 3.107739-32.285955 0.517956 44.026302 3.971-51.968302-0.517957 52.658911 5.006913-13.466869 1.55387-11.395043 0.172652-8.977913 0.172652 4.143652 0.345304 2.41713 0.172653 17.783174 1.553869-31.422695 3.107739 35.221042 0.172652-8.977912 1.381218L29.406566 167.990558l51.968302 0.690609-13.121565 2.589782-11.049738 1.035913-8.805261 1.035913h23.825999l-30.386781 5.870174 27.10639-2.244478-18.819086 4.488956-15.193391 2.41713 50.759737-3.798347-12.603608 3.798347-10.704434 2.071826-8.459956 1.55387 3.970999-0.345304 2.244479-0.172653 11.567695-1.035913-13.294217 4.488957 6.560782-1.381218-16.919912 4.834261 15.020738-2.589782-19.854999 6.560782 12.258304-2.589783-4.143652 1.208566 3.453043-0.517957-13.121564 3.280391 46.27078-7.596695-12.603608 5.352217-6.733434 1.899174-8.114652 2.41713 3.798348-0.690608 1.726521-0.345305-1.726521 0.517957 3.453043-0.690609-8.977913 3.971 20.545608-6.042826-35.393694 14.675434 12.258304-3.625695-4.143652 1.553869 21.581521-5.352217-23.998652 8.805261 34.703086-9.150565-24.171303 12.603608 20.372955-7.769348-34.703085 17.783174 12.258304-4.834261-4.143652 2.071826 10.877086-3.625696-1.208565 0.517957 5.697521-2.071826 13.121565-4.488956 11.222391-3.280392-30.732086 18.991739 20.027652-9.495869-33.667173 20.71826 11.913-5.697522-3.971 2.244478 28.142303-11.912999 11.049739-4.488957-29.523521 21.754173 19.509695-11.22239-32.458607 23.653346 11.740347-6.906086-3.971 2.762434 27.624347-14.502782 10.704434-5.352217-27.969651 24.343956 18.819086-12.948913-30.732085 26.24313 11.22239-7.769348-3.798347 2.935087 26.761086-16.74726 10.531782-6.215478-26.415782 26.588433 17.955826-14.502782L67.390043 283.322205l10.704434-8.80526-3.453043 3.280391 25.725172-18.991738 10.013826-7.078739-24.343955 28.66026 17.092564-16.056652-26.933738 31.422694 10.013826-9.668521-3.107739 3.625696 34.875737-30.386782-23.13539 31.940651 15.883999-17.437869-24.689259 33.667173 46.443432-51.79565-27.796998 45.580172 111.360647-143.473951h-0.863261zM1035.105436 155.904906l4.661609 1.381218-2.589783-1.55387 176.277862-132.769516-48.515258 42.99039 69.924127-47.479346L1168.565561 70.787388l61.636823-34.357781-69.751475 46.961389 37.983477-17.610521 8.977912-4.83426-3.970999 2.589782 3.280391-1.381217-5.524869 2.935087L1160.105605 93.23217l67.161693-32.63126L1165.975779 96.685213l36.602259-16.919912 9.150565-4.143652-3.971 2.41713-2.41713 1.208565-17.092565 9.841174 33.321868-12.258304-43.508346 20.890912 53.004215-20.71826-51.79565 25.379869 14.33013-3.971 11.740348-4.316304 9.323216-3.453044-4.143652 2.071826-2.41713 1.035913-17.610521 8.459957 33.667173-9.49587-44.198955 17.265217 53.522172-16.229304-53.004215 20.890913 14.502782-2.762435 11.912999-3.280391 9.323217-2.589783-4.143652 1.55387-2.41713 0.863261-17.955826 6.906086 33.667173-6.560782-44.716911 13.294217 53.694823-11.567695-53.522171 16.401955 14.33013-1.553869 11.912999-2.244478 9.323217-1.899174-4.316304 1.381217-2.41713 0.690609-18.128478 5.179565 33.49452-3.625696-44.889563 9.49587 53.522172-6.906087-53.694824 11.740347 14.157478-0.345304 11.740347-1.208565 9.323217-1.035913-4.316304 0.863261-2.417131 0.517956-18.128477 3.798348 32.976564-0.863261-44.544259 5.697521 52.831563-2.589782-53.522172 7.251391 13.812174 0.863261 11.740347-0.172652 9.150565-0.345305-4.316305 0.517957-2.41713 0.345304-17.955825 2.244478 32.113303 1.899174-44.026303 1.899174 51.79565 2.071826-52.831563 2.589782 13.466869 2.071826 11.395043 0.690609 8.977913 0.517957-4.143652 0.172652-2.41713 0.172652-17.955826 0.690609 31.422695 4.661608-35.221042-1.553869 8.80526 1.726521 33.49452 4.316304-51.795649-1.899173 12.948912 3.280391 11.049739 1.553869 8.80526 1.381218-4.143652-0.172653-2.41713-0.172652-17.437869-0.863261 30.214129 7.424044-26.933738-3.625696 18.646434 5.524869 14.848086 3.107739-50.414432-6.215478 12.430956 4.316305 10.704434 2.589782 8.287304 2.071826-3.971-0.517956-2.244478-0.345305-11.395043-1.553869 12.948913 5.006913-6.560783-1.726522 16.747261 5.870174-14.848087-3.453044 19.509695 7.424043-12.085652-3.107739 4.143652 1.381218-3.453043-0.690609 12.77626 3.971-45.752824-9.841174 12.258304 6.042826 6.733435 2.244478 7.941999 2.762435-3.798347-0.863261-1.726522-0.517956 1.726522 0.690608-3.453044-0.86326 8.977913 4.316304-20.372956-7.078739 34.703086 16.574608-12.085652-4.316304 4.143652 1.726521-21.408869-6.38813 23.480695 10.013826-34.185129-10.877087 23.480695 13.812174-20.027652-8.805261 33.839825 19.509695-11.912999-5.352217 3.970999 2.071826-10.531782-4.143652 1.035913 0.690609-5.524869-2.417131-12.948913-5.006913-10.877086-3.970999 29.696173 20.545607-19.682347-10.35913 32.803911 22.27213-11.740347-6.38813 3.971 2.589782-27.624347-13.466869-10.704434-4.83426 28.314955 23.13539-18.991738-12.258304 31.250042 25.207216-11.222391-7.424043 3.798348 2.935087-26.933738-15.711347-10.531782-5.870174 26.933738 25.552521-18.30113-13.812173 29.52352 27.796998-10.704434-8.287304 3.453043 3.107739-25.897825-17.955825-10.186477-6.733434 25.034564 27.796998-17.265217-15.366042 27.624347 30.214129-10.35913-9.323217 3.453043 3.453043-24.68926-20.200303-9.841173-7.596696 22.962738 29.868825-16.229304-16.74726 25.379869 32.631259-9.668522-10.186477 3.107739 3.798347-33.321868-32.113303 21.581521 33.149216-15.020738-18.301129 22.790086 34.875737-43.853651-54.040128 25.725173 46.961389-104.454561-148.480863 0.863261-0.172652z" fill="#A67C52" p-id="14285"></path><path d="M364.179117 74.240432c-22.962738 9.150565-45.062215 19.509695-66.298432 31.07739l176.623166 144.509863c0-0.172652-69.060867-94.958692-110.324734-175.587253zM948.088744 100.138257c-21.926825-11.395043-44.889563-21.581521-68.715562-30.559434-39.88265 81.664475-110.152082 180.07621-110.152082 180.07621L948.088744 100.138257zM561.002587 27.796999c-13.121565 1.208565-26.243129 2.762435-39.192042 4.488956l36.602259 106.353735 2.589783-110.842691zM718.461363 30.214129c-13.121565-1.553869-26.415781-2.935087-39.882651-3.798348L676.161582 138.121733l42.299781-107.907604z" fill="#B78349" p-id="14286"></path><path d="M638.005453 555.594672c-124.136908 98.066431-310.601248 160.393863-519.165065 160.393863-39.192042 0-77.693475-2.244478-115.158995-6.38813l-2.762435 1.381217C0.055698 766.402967 9.03361 818.37127 49.606869 860.843703c115.849604 121.029169 369.648289 163.156297 576.830889 163.156297h2.41713c207.355252 0 461.153937-42.127129 576.830889-163.156297 38.328781-40.227955 48.515259-88.915866 48.860563-141.229473L1210.347385 697.860057c-24.171303 1.726522-48.860563 2.589782-73.722475 2.589783-197.341426 0-375.000506-55.76665-498.619457-144.855168z" fill="#FFEEDC" p-id="14287"></path><path d="M1248.503514 625.000843c-2.589782-27.10639-5.006913-54.385432-5.006913-81.146518 0-25.379868-2.244478-50.414433-6.560782-75.103693l-210.117687 3.971L1225.88608 421.789243C1187.211995 288.329118 1086.728434 171.961558 948.088744 100.138257l-178.867644 149.516776s70.269432-98.411735 110.152082-180.07621c-50.069128-18.991738-104.109256-32.458607-160.911819-39.364694L676.161582 138.121733l2.41713-111.533299c-16.401956-1.035913-32.976564-1.726522-49.723824-1.726522H624.538584c-21.581521 0-42.645085 1.035913-63.535997 2.935087l-2.417131 110.842691-36.602259-106.353735c-55.76665 7.942-108.770865 22.444782-157.631428 41.954477 41.263868 80.628562 110.324734 175.414601 110.324735 175.414601L297.880685 105.317822C165.97443 176.277862 69.979825 288.329118 31.133088 416.264374l195.614904 52.313606-207.009947-6.042826c-5.006913 26.761086-7.769347 53.867476-7.769348 81.491823 0 24.516608-2.071826 49.205867-4.316304 74.067779l266.402293-38.156128-270.373293 129.489124c37.46552 4.316304 75.966953 6.38813 115.158995 6.388131 208.563817 0 395.028157-62.327432 519.165065-160.393863 123.618951 89.088518 301.278031 144.855168 498.619457 144.855168 24.861912 0 49.551172-0.863261 73.722475-2.589783L978.302873 583.564323l270.200641 41.43652z" fill="#EFC48B" p-id="14288"></path><path d="M915.11218 652.797842l-38.328781 0.172652 23.308043-3.971-42.817737 2.244478 4.661608-1.035913-6.215478 0.690609-5.179565 0.690609-7.424043 0.345304 4.488956-0.863261-24.171303 1.035913 2.244478-0.863261 25.379869-4.143652 65.435171-10.531782-38.674086 2.244478 23.308043-5.352217-43.163042 4.661609 4.661609-1.208565-11.395043 2.071826-11.567695 1.208565-16.574608 1.899174-5.179565 0.345304 0.690608-0.345304 15.538695-4.488957 67.334345-19.337042-43.163041 7.078738 4.661608-1.553869-11.395043 2.762435-32.113303 5.352217-8.632608 1.381217 2.589782-1.208565 3.107739-1.035913 25.552521-9.150565-14.675434 2.935087 35.04839-13.812173-44.371607 12.948912 2.589782-0.863261-20.372955 3.798348-1.381218 0.172652 0.690609-0.345304c-10.704434-2.244478-22.272129-3.971-34.357781-5.352217-10.35913 32.113303-63.881302 56.284606-128.453212 55.766649v-0.345304h-3.971c-64.744562 0-118.266734-24.68926-128.28056-56.975215-12.258304 1.208565-23.653347 2.762435-34.357781 5.006913l0.690609 0.345304-1.381217-0.345304-20.372956-3.971 2.589782 0.863261-44.198954-13.294217 34.875737 14.157478-14.675434-3.107739 25.379869 9.495869 3.107739 1.035913 2.589782 1.208565-8.632608-1.553869-31.940651-5.697522-11.395043-2.762435 4.488956 1.55387-43.163041-7.596695 66.98904 20.027651 15.538695 4.661608 0.690609 0.345305-5.179565-0.345305-16.574608-2.071826-11.567695-1.381217-11.395043-2.071826 4.661608 1.381217-42.990389-5.179565 23.308042 5.52487-38.674085-2.589783 65.262519 11.222391 25.207216 4.316304 2.244479 0.863261-24.171304-1.381217 4.488957 0.863261-8.114652-0.172653-5.179565-0.690608-6.215478-0.863261 4.661608 1.035913-42.817737-2.762435 23.308042 4.316304-38.328781-0.517956 51.450346 5.870174 28.314955 3.280391-20.71826-0.172652 19.164391 2.762434-12.258304-0.172652-11.395043-0.863261 4.661609 0.863261-12.430956-0.172652-30.041477-0.172652 23.13539 2.935087-37.983477 1.726521 39.882651 2.417131 13.984825 0.86326-5.006913 0.172653 36.256955 3.625695-19.682347 0.863261-11.395043-0.172652 4.661609 0.517956-22.790086 1.035913-19.164391 0.863261 18.128478 1.381217 5.006913 0.345305-5.352217 0.517956-32.113303 3.280391 30.732085 0.172653 44.026303 0.172652 18.473782 1.035913-0.863261 0.172652-27.10639 2.935087-11.222391 0.345304 4.488956 0.345304-30.386781 3.280391-11.049739 1.208566 10.704434 0.172652 12.258304 0.172652-12.77626 2.071826-23.998651 3.798348 23.480694-1.208566 69.924128-3.625695h2.762435l-3.798348 1.035913-1.035913 0.172652-26.761086 4.316304-11.049739 1.035913h4.488957l-36.084303 5.870174-4.661609 0.690609 4.488957-0.172653 18.128477-0.690608-18.473782 3.971-17.783173 3.798347 17.610521-1.899174 74.413084-8.287304 2.762435-0.172652-3.625696 1.208565-0.863261 0.345305-26.243129 5.870173-10.877086 1.726522 4.488956-0.172652-12.77626 2.935087-25.207217 5.524869 1.726522-0.172652-3.625696 0.863261 22.444782-2.244478-22.617434 6.38813-12.603608 3.625695 12.77626-2.071826 42.817738-7.251391 23.308042-2.244478-16.574608 5.352217-9.841173 2.071826 4.488956-0.517956-39.01939 11.222391 8.632609-1.381218-12.776261 4.143652-10.35913 3.280391 10.531783-2.244478 14.848086-3.280391-14.502782 5.006913-8.632608 2.935087 8.114651-1.899174-1.899173 0.517956 2.589782-0.517956L440.318722 730.318665l-6.042825 2.41713-21.236217 5.697521 13.121565-2.41713-10.35913 4.143652-22.444782 7.942 6.560782-1.381218-1.899173 0.690609 4.661608-1.381217 12.258304-2.589783-28.142303 11.567695-5.352217 2.244479 5.524869-1.55387 3.280391-1.035913-3.280391 1.381217-15.883999 6.388131 16.229303-4.834261 30.559434-9.323217-30.041477 11.395043-8.287304 3.107739 8.632608-2.244478 41.781824-11.395043-30.559433 12.77626 18.991738-5.352217-21.408868 10.35913 3.798347-1.381217-9.668521 4.661608-3.107739 1.55387 3.280391-1.208566 27.10639-9.668521-26.070477 12.430956-21.754173 10.35913 22.444782-8.459956 24.68926-9.323217-23.998652 10.877086-14.157477 6.388131 14.675434-5.179565 22.617434-7.942-10.704435 5.179565 20.545608-7.078739-0.345304 0.172652-14.502782 6.215478 8.977913-3.107739-23.825999 13.294217-1.726522 1.035913 1.899174-0.690609 5.524869-2.244478-5.006913 2.762435 29.523521-13.121565 7.596695-3.280391-35.738998 19.682347-27.279043 15.020739 28.314956-12.948913 18.646434-8.459956-18.128478 9.668521-19.854999 10.531782 20.71826-8.977912 23.998651-10.35913 7.942-3.280391-8.459956 5.352217-11.395043 5.697521 7.251391-3.107739-16.401956 10.531782-1.035913 0.690609 1.035913-0.517956 8.114652-3.971-7.596696 4.83426-5.179565 3.280392 5.52487-2.762435 32.976563-17.265217-31.422694 19.682347-32.458607 19.337043 33.49452-17.955825 12.948913-6.906087-12.603609 7.596695-24.861912 15.020739 26.070478-13.121565 29.350868-14.848086-7.424043 5.352217-15.366043 8.80526 9.841173-5.006912-13.639521 9.841173-0.863261 0.690609 1.035913-0.517957 3.280392-1.899174-3.107739 2.244479-9.841174 7.078738 10.35913-6.215478 27.451695-16.401955-26.070478 18.301129-36.084302 25.379869 37.810824-23.135391 7.942-4.83426-7.596696 5.179565-29.005564 19.854999 30.559434-17.783173 27.451694-16.056652 0.517957-0.345304-5.352217 4.316304-20.545608 13.466869 13.121565-7.596695-12.085652 9.668521-13.639521 10.877087 14.502782-9.841174 20.200303-13.639521 1.899174-1.208565-20.890912 16.401956-39.01939 30.732085 41.091216-28.314955 3.625695-2.589783-3.453043 2.762435-32.113303 24.516608 34.012477-22.444782 15.020738-10.013826-4.488956 3.798348 8.459956-5.352217-0.863261 0.690609-16.74726 12.430956 0.172652 0.172652 9.49587-6.215478-8.287304 7.424043-16.574608 14.502782 17.610521-13.294217 6.733434-5.179565-6.215478 5.697522-1.899174 1.726521 2.071826-1.553869 5.179565-3.798348-4.83426 4.143652-40.745912 35.738999 43.163042-33.321869 0.345304-0.172652-0.345304 0.172652-34.012477 29.005564 36.256955-26.761085 19.682347-14.675435-5.006913 4.834261-13.294217 10.877087-6.042825 5.006912 6.38813-4.661608 6.215478-4.488956-5.352217 5.179565-18.473782 17.955825 19.854999-16.574608 15.193391-12.77626-14.157478 13.639521-41.609172 40.055302 42.127128-35.91165-32.976563 30.904738 37.46552-30.732086c0.345304 0.345304 0.863261 0.690609 1.208565 1.035913l-7.942 7.251391 8.459956-6.906087c0.172652 0.172652 0.345304 0.345304 0.517957 0.345305l-19.337043 20.71826 20.890912-19.509695c0.345304 0.172652 0.517956 0.517956 0.863261 0.690608l-41.43652 43.680999 40.400607-37.983477-31.595346 32.458607 37.638172-34.185129 0.172652 0.172652-17.092564 19.682347 18.819086-18.301129-19.509695 22.790086 21.236217-21.581521c0.345304 0.172652 0.517956 0.345304 0.86326 0.517956l-40.055302 46.443433 38.501433-39.88265-29.868825 33.667172 34.185129-34.185129-2.41713 3.107739 5.179565-5.352217c0.345304 0.172652 0.690609 0.345304 0.863261 0.690609l-9.150565 10.013825 7.596695-7.596695-1.553869 2.244478 3.798347-4.143652 0.172652 0.172652-18.819086 24.171304L469.669591 864.987355c0.345304 0.172652 0.517956 0.345304 0.863261 0.517956l-37.983477 48.342607 36.429607-41.43652-27.969651 34.875737 34.875738-38.328781c0.345304 0.172652 0.863261 0.517956 1.208565 0.690609l-8.632608 10.35913 8.80526-9.668521-5.006913 7.251391 1.726522-1.899174-13.466869 18.991738 19.16439-23.480694c0.345304 0.172652 0.517956 0.345304 0.863261 0.517956L445.498287 920.754004l34.185129-42.645085-26.070477 35.566347 32.285955-39.01939c0.345304 0.172652 0.863261 0.517956 1.208566 0.690609l-7.424044 9.841173 7.942-9.668521c0.172652 0 0.172652 0.172652 0.345304 0.172652l-15.366042 23.998651 16.574608-22.444782-5.352218 8.977913 6.388131-8.459956-30.904738 48.342607 31.767998-43.680999-23.998651 36.256955 29.005564-38.501433c0.517956 0.172652 0.863261 0.517956 1.381218 0.690609l-5.870174 8.459956 6.215478-8.287304c0.172652 0.172652 0.345304 0.172652 0.517956 0.345304l-12.948912 22.617434 14.502782-21.754173 1.035913 0.517957-27.279042 47.306693 29.178216-44.371606-21.581521 36.256955 25.207216-36.947564c0.517956 0.172652 1.035913 0.517956 1.381218 0.690609l-3.798348 6.215478 4.143652-6.042826c0.345304 0.172652 0.690609 0.345304 1.035913 0.345304l-10.186478 20.027651 11.567695-19.337042c0.172652 0 0.172652 0 0.345305 0.172652l-0.345305 0.690609 0.345305-0.517957c0.345304 0.172652 0.690609 0.345304 0.86326 0.345304l-22.962738 44.544259 22.790086-38.328781-2.762434 6.042826-12.776261 24.171304 21.063565-34.357782c0.517956 0.172652 1.035913 0.517956 1.726521 0.690609l-1.553869 2.935087 1.726521-2.762435 1.55387 0.517957-7.251391 16.401956 8.632608-15.884 1.55387 0.517957-18.473782 40.573259 21.063564-39.709998c0.172652 0 0.172652 0 0.345304 0.172652l-14.675434 31.250042 9.49587-17.265217-0.863261 2.417131 6.38813-12.258304 1.899174-3.453044c1.381217 0.517956 2.589782 0.863261 3.970999 1.381218l-4.488956 11.740347 5.352217-11.395043c0.690609 0.172652 1.208565 0.345304 1.899174 0.690609l-13.984825 35.566346 16.229303-34.875738c0.172652 0 0.345304 0.172652 0.517957 0.172653l-10.704435 26.070477 9.150565-18.646434-3.798347 11.049738 8.114651-17.783173c1.208565 0.345304 2.589782 0.690609 3.971 1.208565l-1.899174 6.042826 2.417131-5.870173c0.863261 0.172652 1.553869 0.517956 2.41713 0.690608l-9.668521 29.350869 11.740347-28.832912c0.345304 0 0.517956 0.172652 0.863261 0.172652l-6.906087 19.854999 6.215478-14.33013-4.316304 15.020739 7.769348-19.854999c2.41713 0.690609 4.834261 1.208565 7.251391 1.726521l-2.244479 7.769348 1.208566-2.762435-4.661609 17.265217 7.424043-21.754173c0.345304 0 0.690609 0.172652 1.035913 0.172652l-0.690608 3.107739-2.762435 9.668521 1.381217-3.798347-3.107739 13.294216 7.251391-21.754173c2.41713 0.517956 4.661608 1.035913 7.078739 1.381218l-2.071826 9.323217 3.107739-9.150565c0.345304 0 0.690609 0.172652 1.035913 0.172652l-2.762435 13.812173 3.107739-10.877086-3.798347 21.063564 6.560782-23.480694c2.244478 0.345304 4.488956 0.690609 6.906087 1.035913l-1.899174 10.704434 3.107739-10.531782c0.517956 0 1.035913 0.172652 1.553869 0.172652l-3.280391 25.379868 5.52487-25.034564c2.244478 0.345304 4.488956 0.517956 6.733434 0.863261l-1.381217 11.913 2.762434-11.740348c0.517956 0 0.863261 0.172652 1.381218 0.172652l-2.071826 26.588434 4.488956-26.243129c2.244478 0.172652 4.316304 0.345304 6.560782 0.517956l-0.86326 12.776261 2.244478-12.776261h1.208565l-0.690609 27.451695 3.280391-27.279043c2.935087 0.172652 6.042826 0.345304 8.977913 0.345305l0.690609 27.969651 1.899174-27.969651h5.352217v6.733434l0.690608-6.38813h4.488957l0.690608 6.215478v-6.215478h5.352218l1.553869 27.969651 0.863261-27.969651c3.107739 0 6.042826-0.172652 8.977913-0.345304l2.935086 27.279042-0.517956-27.451694h1.208565l2.244478 12.77626-0.863261-12.77626c2.244478-0.172652 4.316304-0.345304 6.560783-0.517957l4.143652 26.243129-1.726522-26.588433c0.517956 0 0.863261-0.172652 1.381217-0.172652l2.589783 11.740347-1.381217-11.913c2.244478-0.172652 4.488956-0.517956 6.733434-0.690608l5.352217 25.034564-2.935087-25.379869c0.517956 0 1.035913-0.172652 1.55387-0.172652l2.935087 10.531782-1.726522-10.704434c2.244478-0.345304 4.661608-0.690609 6.906087-1.035913l6.215478 23.480695-3.453044-21.063565 2.935087 10.877087-2.589782-13.812173c0.345304 0 0.690609-0.172652 1.035913-0.172653l3.107739 9.150565-2.071826-9.323217c2.41713-0.345304 4.661608-0.863261 7.078739-1.381217l7.078738 21.754173-2.935086-13.294217 1.381217 3.798348-2.589783-9.668522-0.690608-3.107739c0.345304 0 0.690609-0.172652 1.035913-0.172652l7.251391 21.754173-4.488957-17.265216 1.208566 2.935086-2.071826-7.769347c2.41713-0.517956 4.834261-1.035913 7.251391-1.726522l7.596695 19.854999-4.143652-15.020738 6.042826 14.502782-6.733435-20.027651c0.345304 0 0.517956-0.172652 0.863261-0.172653l11.395043 29.005564-9.323217-29.52352c0.863261-0.172652 1.553869-0.345304 2.41713-0.690609l2.417131 6.042826-1.899174-6.042826c1.381217-0.345304 2.589782-0.690609 3.971-1.035913l7.941999 17.783173-3.625695-11.22239 8.977913 18.646434-10.35913-26.24313c0.172652 0 0.345304-0.172652 0.517956-0.172652l15.883999 35.04839-13.639521-35.738999c0.690609-0.172652 1.208565-0.345304 1.899174-0.690608l5.352217 11.395043-4.316304-11.740348c1.381217-0.345304 2.589782-0.863261 3.971-1.381217l1.899174 3.453043 6.215478 12.258304-0.863261-2.41713 9.323217 17.265217-14.33013-31.422695c0.172652 0 0.172652 0 0.345304-0.172652l20.545608 39.882651-18.991738-40.227955 1.553869-0.517957 8.459957 16.056652-7.078739-16.401956 1.553869-0.517957 1.726522 2.935087-1.55387-2.935087c0.517956-0.172652 1.035913-0.345304 1.726522-0.690608l20.71826 34.530433-12.603608-24.343955-2.762435-6.042826 22.27213 38.501433-22.444782-44.716911c0.345304-0.172652 0.690609-0.172652 0.863261-0.345305l0.345304 0.690609-0.345304-0.690609c0.172652 0 0.172652 0 0.345304-0.172652l11.395043 19.509695-10.013825-20.027651c0.345304-0.172652 0.690609-0.345304 1.035913-0.345305l4.143652 6.042826-3.798348-6.215478c0.517956-0.172652 1.035913-0.345304 1.553869-0.690608l24.861912 37.292868-21.408868-36.774912 28.832912 44.716911-26.933738-47.479346 1.035913-0.517956 14.330129 21.926825-12.603608-22.617434c0.172652-0.172652 0.345304-0.172652 0.517957-0.345304l6.215478 8.287304-5.697522-8.459956c0.517956-0.172652 0.863261-0.517956 1.381218-0.690609l28.660259 38.846738-23.998651-36.947564 31.422694 44.026302-30.386781-48.342606 6.215478 8.459956-5.352217-8.977913 16.229304 22.617434-15.020739-24.171303c0.172652 0 0.172652-0.172652 0.345304-0.172652l7.942 9.668521-7.424043-10.013826c0.345304-0.172652 0.863261-0.517956 1.208565-0.690608l31.940651 39.192041-25.725173-35.91165 33.839825 42.990389-34.530434-49.551172c0.345304-0.172652 0.517956-0.345304 0.863261-0.517956l18.819086 23.653347-13.294216-19.164391 1.553869 1.899174-4.834261-7.251391 8.805261 9.668521-8.459956-10.531782c0.345304-0.172652 0.863261-0.517956 1.208565-0.690608l34.530433 38.674085-27.624346-35.04839 36.084302 41.781824-37.46552-48.687911c0.345304-0.172652 0.517956-0.345304 0.863261-0.517956l20.372956 23.13539-18.473782-24.343955s0.172652 0 0.172652-0.172652l3.798348 4.143652-1.55387-2.244479 7.596696 7.596696-9.150565-10.186478c0.345304-0.172652 0.690609-0.345304 0.863261-0.690609l5.006912 5.352217-2.244478-3.107739 33.839825 34.530434-29.523521-34.012477 38.156129 40.227955-39.709998-46.96139c0.345304-0.172652 0.517956-0.345304 0.863261-0.517956l20.890912 21.754173-19.337043-22.962738 18.646434 18.646434-16.919912-19.854999h0.172652l37.292868 34.530433-31.250042-32.803912 40.055303 38.501433-40.918564-44.026302c0.345304-0.172652 0.517956-0.517956 0.863261-0.690609l20.71826 19.682347-19.164391-20.890912c0.172652-0.172652 0.345304-0.345304 0.517957-0.345304l8.287304 6.906086-7.942-7.251391c0.345304-0.345304 0.863261-0.690609 1.208565-1.035913l37.120216 31.07739-32.803911-31.250042 41.781824 36.256955-41.263868-40.400607-13.984825-13.639521 15.020738 12.77626 19.682347 16.919913-18.30113-18.128478-5.352217-5.352217 6.215478 4.661609 6.38813 4.83426-6.042825-5.006913-13.294217-11.049738-5.006913-5.006913 19.509695 14.848086 36.084302 27.279043-33.839824-29.350869-0.345304-0.345304 0.345304 0.172652 42.817737 33.667173-40.400607-35.393695-4.661608-4.143652 5.006913 3.798348 2.071826 1.55387-1.899174-1.726522-6.215478-5.697522 6.733434 5.179565 17.610521 13.639522-16.401956-14.675435-8.287304-7.424043 9.323217 6.38813 0.172653-0.172652-16.747261-12.603608-0.86326-0.690609 8.459956 5.52487-4.488957-3.798348 15.020739 10.186478 33.667172 22.790086-31.767998-24.861912-3.453044-2.762435 3.625696 2.589783 40.745911 28.660259-38.674085-31.07739-20.71826-16.574608 1.899174 1.208566 20.027651 13.812173 14.502782 10.013826-13.466869-11.049739-12.085652-9.841174 13.121565 7.769348-20.372956-13.812173-5.352217-4.316305 0.517957 0.345305 27.279042 16.229303 30.386781 18.128478-28.832911-20.200304-7.596696-5.352217 7.942 4.834261 37.638172 23.480695-35.738998-25.897825-25.897825-18.646434 27.279042 16.74726 10.35913 6.38813-9.841173-7.078739-3.107739-2.244478 3.280391 1.899174 1.035913 0.517956-0.863261-0.690608-13.466869-10.013826 9.841173 5.006913-15.19339-8.977913-7.251391-5.352217 29.178216 15.193391 25.897825 13.466869-24.68926-15.366043-12.430956-7.769348 12.948913 7.078739 33.321868 18.30113-31.940651-20.545608-31.250042-20.027651 32.803911 17.610521 5.352217 2.935086-5.179564-3.280391-7.596696-4.83426 7.942 4.143652 1.035913 0.517956-1.035913-0.690609-16.401956-10.704434 7.251391 3.107739-11.395043-5.870174-8.459956-5.524869 7.942 3.280391 23.825998 10.531782 20.545608 9.150565-19.682347-10.704434-17.955825-9.841174 18.473782 8.805261 28.142303 13.294217-27.10639-15.193391-35.566346-20.027651 7.424043 3.280391 29.350868 13.466869-5.006913-2.762435 5.352217 2.417131 1.899174 0.86326-1.726522-1.035913-23.653346-13.466869 8.977912 3.280392-13.984825-6.906087-0.345304-0.172652 20.545607 7.251391-10.704434-5.352217 22.617434 8.114651 14.675434 5.352218-14.157478-6.560783-23.998651-11.222391 24.516608 9.668522 22.272129 8.80526-21.581521-10.531782-25.897824-12.603608 26.933737 9.841173 3.280392 1.208566-3.107739-1.55387-9.49587-4.661608 3.798348 1.381217-21.236216-10.531782 18.991738 5.524869L837.418706 751.036925l41.781824 11.912999 8.459956 2.41713-8.287304-3.280391-30.041477-11.567695 30.559433 9.495869 16.229304 5.006913-15.883999-6.560782-3.280391-1.381218 3.280391 1.035913 5.524869 1.726522-5.352217-2.244478-27.969651-11.913 12.258304 2.762435 4.661608 1.381217-1.899174-0.690608 6.560783 1.553869-22.444782-8.114652-10.35913-4.316304 13.121565 2.589783-21.236217-5.870174-5.870173-2.41713 56.111954 11.222391 2.589782 0.517956-1.899174-0.690609 8.114652 1.899174-8.459956-3.107739-14.502782-5.179565 14.675434 3.453044 10.531782 2.41713-10.35913-3.453043-12.77626-4.143652 8.459956 1.381217L840.871749 725.1391l4.488956 0.517956-9.841173-2.244478-16.574608-5.524869 23.308042 2.589782 42.817737 7.596695 12.776261 2.244479-12.603608-3.625696-22.617434-6.560782 22.272129 2.41713-3.625695-0.863261 1.726521 0.172652-25.207216-5.697521-12.77626-2.935087 4.488956 0.345304-10.877086-1.726521-26.070477-6.215478-0.863261-0.345305-3.625696-1.208565 2.762435 0.172652 74.413084 8.977913 17.610521 2.071826-17.610521-4.143652-18.30113-4.143652 18.128477 0.863261 4.488957 0.172652-4.661609-0.863261-36.084302-6.215478h4.488956l-11.049739-1.208565-26.588433-4.661608-1.035913-0.172653-3.798348-1.035913h2.762435l69.924127 4.488957 23.480695 1.553869-23.998652-4.143652-12.77626-2.244478h22.962738l-11.049738-1.208565-30.386782-3.453043 4.488957-0.172653-11.222391-0.517956-27.10639-3.107739-0.863261-0.172652 18.646434-0.863261 44.026302 0.345304 30.732086 0.172652-32.113303-3.625695-5.352217-0.517956 5.006913-0.345305 18.128477-1.208565-19.16439-1.035913-22.790086-1.381217 4.661608-0.517957-11.222391 0.172652-19.682347-1.208565 36.256955-3.280391-5.006912-0.172652 13.984825-0.690609 40.055303-1.899174-37.983477-2.071826 23.308042-2.762434H856.06514l4.661608-0.690609-11.395043 0.690609h-12.258304l19.164391-2.589783h-20.71826l28.314955-2.935087 51.277693-5.697521z" fill="#FFFCF8" p-id="14289"></path><path d="M620.740236 554.213455l9.150565 32.458607-0.863261-29.52352-1.035913 11.049738-5.697521-26.761086-1.208565-5.524869-0.172652 5.524869-0.690609 21.581521-7.596695-21.063564-4.488957-12.430956 1.899174 12.77626 1.381217 8.632609 0.517957 13.639521-9.495869-21.408869-5.179565-11.567695 2.589782 11.912999 2.071826 9.323217 0.517957 5.006913-7.251391-13.121564 4.488956 14.848086-7.942-14.848086-5.697521-10.704435 3.280391 11.049739 2.935087 9.841173 0.863261 5.006913-8.287304-12.77626 5.524869 14.675434-9.495869-15.020738-6.215478-9.841174 3.971 10.35913 3.798347 10.186478 1.208566 5.006913-9.323217-12.430956 6.560782 14.33013-10.877087-15.020739-6.733434-9.150565 4.488956 9.841174 4.834261 10.35913 1.553869 4.83426-10.35913-11.912999 7.769348 13.984825-12.258304-14.502782-7.424043-8.80526 5.179565 9.668521 5.697521 10.35913 1.899174 4.834261-11.395043-11.567695 8.805261 13.639521-13.466869-13.812173-8.287304-8.632609 6.215478 9.668522 6.215478 9.841173 2.244478 4.661609-12.430956-11.049739 10.013826 13.294217-14.157478-12.776261-9.668521-8.80526 7.424043 10.013826 6.560782 8.80526 2.589783 4.661609-13.639522-10.35913 11.222391 12.77626-14.157477-11.222391-11.740348-9.323217 12.776261 17.265217c-1.553869-0.863261-8.632608-4.316304-8.632609-4.316304l1.208566 1.208565 11.049738 11.049738-13.294217-9.150564-14.675434-10.186478 12.258304 12.430956 5.006913 5.006913 3.453043 4.316304-11.222391-6.560783-4.488956-2.589782 3.798348 3.280391 9.668521 8.459956-11.049739-6.733434-18.991738-11.395043 16.574608 14.502782 2.41713 2.071826 3.798348 4.143652-7.769347-3.971-8.977913-4.488956 7.942 6.042825 6.560782 5.006913-7.251391-3.798347-24.861912-12.948913 20.545608 15.883999 2.071826 1.899174 2.071826 2.071826-2.417131-1.035913-15.366042-6.560782 14.330129 9.668521v0.172652l1.035913 0.690609-1.035913-0.517956-32.631259-14.675435 22.272129 14.848087 4.488957 3.798347-18.819086-6.906086 16.919912 9.841173-36.084303-13.812173 23.825999 13.984825 5.006913 3.625696-19.682347-6.042826 17.955825 8.977913-37.983476-12.085652 25.379868 12.77626 5.352217 3.453044-20.71826-5.179565 18.991739 8.287304-39.882651-10.531782 26.933738 11.740347 5.006913 2.762435c10.704434-2.244478 22.272129-3.798348 34.357781-5.006913 10.013826 32.285955 63.363345 56.975215 127.762603 56.975215l-5.352217-60.082954-5.870174-62.15478zM640.249931 554.213455l-0.172652 1.208565 0.172652 1.899174zM634.55241 560.083628l-2.589783-18.819086-1.035913-6.38813-0.517956 6.38813-1.381218 14.157478 3.798348 16.574608z" fill="#FFF0E9" p-id="14290"></path><path d="M791.147925 622.756365l19.16439-8.114652-20.71826 5.006913 5.352218-3.453043 25.55252-12.603609-38.156129 11.740348 18.128478-8.805261-19.854999 5.870174 5.006913-3.625696 23.998651-13.639521-36.256955 13.466869 16.919912-9.668521-18.819086 6.733434 4.661608-3.798347 22.27213-14.675434-32.803912 14.330129-1.035913 0.517957 1.035913-0.690609v-0.172652l14.502782-9.495869-15.366043 6.560782-2.41713 1.035913 2.244478-2.071826 2.071826-1.899174 20.71826-15.538695-25.034564 12.603609-7.251391 3.625695 6.560782-5.006913 8.114652-6.042826-8.977912 4.488957-7.769348 3.798347 3.798348-4.143652 2.41713-2.071826 16.74726-14.330129-19.16439 11.22239-11.222391 6.560783 9.668521-8.287304 3.798348-3.280391-4.488956 2.589782-11.222391 6.38813 3.453043-4.316304 5.006913-5.006913 12.430956-12.258304-14.848086 10.013826-13.812174 8.977913 11.222391-10.877087 1.208565-1.208565s-7.078739 3.453043-8.80526 4.316304l12.948912-17.092564-11.912999 9.150565-14.33013 11.049738 11.222391-12.77626-13.639521 10.35913 2.762434-4.661609 6.733435-8.80526 7.596695-9.841174-9.841173 8.632609-14.33013 12.603608 10.186478-13.121565-12.603609 10.877087 2.244479-4.661609 6.38813-9.668521 6.215478-9.495869-8.459956 8.459956-13.639522 13.639521 8.977913-13.639521-11.222391 11.222391 1.899174-4.834261 5.697522-10.186478 5.352217-9.495869-7.596696 8.632608-12.430956 14.502782 7.942-13.984825-10.531782 11.912999 1.553869-4.83426 4.834261-10.35913 4.661609-9.841174-6.906087 9.150565-11.049739 14.848086 6.733435-14.330129-9.495869 12.258303 1.208565-5.006912 3.971-10.186478 3.970999-10.35913-6.215478 9.841173-9.495869 14.848087 5.697522-14.502782-8.459956 12.603608 0.86326-5.006913 3.107739-9.841174 3.453044-11.049738-5.870174 10.704434-8.114652 14.675434 4.488957-14.848086-7.251391 12.948912 0.517956-5.006912 2.244478-9.323217 2.762435-11.913-5.179565 11.567695-9.668521 21.236217 0.517956-13.639521 1.381217-8.632609 2.071826-12.77626-4.661608 12.430956-7.769348 21.063564-0.517956-21.581521-0.172652-5.524869-1.208565 5.524869-6.042826 26.588434-0.863261-11.222391-0.172652-1.899174-1.208565-13.984825-0.517957-6.38813-1.035913 6.215478-2.762435 18.473782-1.899173 11.912999-3.625696-16.401956-0.172652-1.035913v2.589783l0.863261 29.52352-9.150565-32.458607 5.524869 62.672736 5.352217 60.082954v0.172653c1.381217 0 2.762435 0 3.971 0.172652 64.744562 0.690609 118.612038-23.480695 128.798517-55.76665 12.258304 1.381217 23.653347 3.107739 34.357781 5.352217l5.006913-2.762435 27.10639-11.395043-39.192042 10.877087z" fill="#FFF0E9" p-id="14291"></path><path d="M600.885237 679.213623v-3.107739c-14.848086-1.381217-27.969651-3.625695-38.328781-6.733434l-3.971-0.690609 58.183781 53.004215-0.345305-1.381217c-9.323217-8.977913-15.538695-23.998651-15.538695-41.091216z" fill="#75320F" p-id="14292"></path><path d="M7.652393 617.922104C4.717306 649.344799 1.264263 680.594841 0.918958 710.80897l273.30838-131.042995L7.652393 617.922104zM31.133088 416.264374c-4.661608 15.193391-8.459956 30.732086-11.395043 46.27078l207.009947 6.042826L31.133088 416.264374zM1248.503514 625.000843l-270.200641-41.43652 276.416119 136.049907c0-30.732086-3.280391-62.500084-6.215478-94.613387zM1236.935819 468.750632c-2.762435-15.883999-6.560782-31.595346-11.049739-47.134041l-199.067948 51.105041 210.117687-3.971z" fill="#754C24" p-id="14293"></path><path d="M95.532346 531.250717l92.541561-3.971-88.915866-7.596696 80.628562-15.366042-92.368909 4.488956-74.240432 1.035913c-0.863261 7.596695-1.208565 15.193391-1.208565 22.790086 0 2.244478 0 4.488956-0.172652 6.733434l154.005733 10.35913-70.269432-18.473781zM1242.978645 517.093239l-53.176867-1.381217-92.36891-5.697522 80.283258 16.401956-89.26117 6.560782 92.541561 5.179565-70.614736 17.437869 133.632777-7.251391c-0.345304-5.352217-0.517956-10.531782-0.517957-15.883999 0-5.179565-0.172652-10.186478-0.517956-15.366043z" fill="#754C24" p-id="14294"></path><path d="M392.666724 387.949418c-18.991738 0-57.320519 12.085652-53.349519 10.531782 3.971-1.553869-39.537346 21.926825-99.965605 53.34952 0 0 21.754173 75.794301 24.861912 82.527736 12.603608 54.558085 65.089867 95.6493 128.107908 95.6493 45.234868 0 100.310909-21.063564 123.964256-53.34952 6.560782-13.466869 7.251391-42.645085 7.251391-67.679649 0.172652-66.816388-58.356432-121.029169-130.870343-121.029169z" fill="#FFF0E9" p-id="14295"></path><path d="M392.666724 643.301973c-67.161693 0-126.208734-44.026302-140.711515-104.972518-4.488956-11.567695-18.819086-61.118867-25.034565-82.87304l-2.935086-10.35913 9.495869-5.006912c53.694824-27.969651 89.088518-46.961389 97.20317-51.622998 1.035913-0.863261 2.244478-1.726522 3.970999-2.244478 1.035913-0.345304 2.071826-0.690609 3.107739-0.863261 0.345304-0.172652 0.863261-0.172652 1.55387-0.345305 17.265217-4.661608 39.01939-10.186478 53.522172-10.186477 79.419997 0 144.164559 60.255606 144.164559 134.323385 0 33.49452-1.553869 59.047041-8.632609 73.549823l-0.345304 1.035913-0.690609 0.863261c-28.487607 38.328781-89.088518 58.701737-134.66869 58.701737z m-137.431124-184.910471c9.495869 32.803912 19.337043 65.953128 21.236216 70.442084l0.690609 1.208565 0.172652 1.208566c11.395043 49.551172 59.910302 85.635475 115.331647 85.635474 43.163042 0 92.368909-20.71826 112.569213-46.961389 5.524869-12.77626 5.524869-46.443433 5.524869-60.946215 0-59.392345-52.831563-107.907604-118.094082-107.907604-12.77626 0-38.156129 6.906087-46.616085 9.323217-0.690609 0.172652-1.035913 0.172652-1.553869 0.345304-0.172652 0-0.172652 0.172652-0.345304 0.172652-1.208565 0.863261-3.107739 1.899174-5.697522 3.107739-4.834261 2.762435-12.085652 6.560782-21.063564 11.395043-17.437869 9.323217-39.192042 20.890912-62.15478 32.976564zM862.798574 391.057157c18.991738 0 57.320519 12.085652 53.349519 10.531782-3.971-1.553869 39.537346 21.926825 99.965605 53.34952 0 0-21.754173 75.794301-24.861912 82.527736-12.603608 54.558085-65.089867 95.6493-128.107908 95.6493-45.234868 0-100.310909-21.063564-123.964255-53.34952-6.560782-13.466869-7.251391-42.645085-7.251391-67.679649-0.172652-66.816388 58.356432-121.029169 130.870342-121.029169z" fill="#FFF0E9" p-id="14296"></path><path d="M862.798574 646.23706c-45.580172 0-106.181082-20.200303-134.496038-58.874389l-0.690608-0.863261-0.345305-1.035913c-7.251391-14.502782-8.632608-39.88265-8.632608-73.549823 0-36.084303 15.193391-69.751475 42.645085-95.303996 27.10639-25.034564 63.190693-39.01939 101.519474-39.01939 14.502782 0 36.256955 5.524869 53.522172 10.186478 0.690609 0.172652 1.035913 0.172652 1.553869 0.345304 1.035913 0.172652 2.071826 0.345304 3.107739 0.863261 1.553869 0.690609 2.762435 1.208565 3.971 2.244478 7.942 4.661608 43.335694 23.653347 97.20317 51.622998l9.495869 5.006913-2.935087 10.35913c-6.38813 21.754173-20.71826 71.477997-25.034564 82.87304-14.675434 61.118867-73.722475 105.145169-140.884168 105.14517z m-112.569213-73.377171c20.200303 26.415781 69.060867 46.961389 112.569213 46.961389 55.421345 0 103.936604-36.084303 115.331647-85.635475l0.345305-1.553869 0.690608-1.208565c1.899174-4.143652 11.740347-37.292868 21.236217-70.09678-22.962738-12.085652-44.889563-23.653347-62.327432-32.803912-8.977913-4.834261-16.056651-8.632608-21.063565-11.395043-2.589782-1.553869-4.488956-2.589782-5.697521-3.107739-0.172652 0-0.172652-0.172652-0.345305-0.172652-0.345304-0.172652-0.863261-0.172652-1.553869-0.345304-8.459956-2.244478-33.667172-9.323217-46.616085-9.323217-31.595346 0-61.464171 11.395043-83.736301 32.113303-22.099477 20.372956-34.185129 47.134041-34.185129 75.794301 0 14.502782 0 47.997302 5.352217 60.773563zM285.795033 415.573765l-111.187995 53.867476 34.875738-11.049739-40.573259 24.516608 43.335693-18.991738-30.732085 25.897825 40.227954-24.68926-20.027651 22.099477z" fill="#FFF0E9" p-id="14297"></path><path d="M973.295961 418.508852l111.015343 54.040128-34.875738-11.049739 40.573259 24.516608-43.335694-19.164391 30.732086 26.070478-40.227955-24.68926 20.027652 22.099477z" fill="#FFF0E9" p-id="14298"></path><path d="M390.422246 411.775417c-15.538695 0-46.961389 9.841173-43.680998 8.632609s-32.458607 17.955825-81.837127 43.680998c0 0 17.783173 62.15478 20.372956 67.679649 10.35913 44.716911 53.349519 78.384084 104.972517 78.384084 37.120216 0 82.182431-17.265217 101.519474-43.680998 5.352217-11.049739 5.870174-34.875738 5.870174-55.421346 0.172652-54.903389-47.82465-99.274996-107.216996-99.274996z" fill="#F9E1C5" p-id="14299"></path><path d="M390.422246 620.857191c-55.076041 0-103.418648-36.084303-115.331647-85.980779-3.625695-9.495869-15.366043-50.069128-20.545608-67.852301l-2.41713-8.459957 7.769347-4.143652c44.026302-22.962738 73.031866-38.501433 79.592649-42.29978 0.863261-0.690609 1.899174-1.381217 3.280391-1.899174 0.863261-0.345304 1.726522-0.517956 2.589783-0.690609 0.345304-0.172652 0.690609-0.172652 1.208565-0.345304 14.157478-3.798348 31.940651-8.287304 43.85365-8.287304 65.089867 0 118.094082 49.37852 118.094082 109.97943 0 27.451694-1.208565 48.342607-7.078739 60.255606l-0.345304 0.863261-0.517956 0.690609c-23.13539 31.595346-72.859214 48.169954-110.152083 48.169954z m-112.569212-151.41595c7.769347 26.933738 15.883999 54.040128 17.437868 57.665824l0.517957 1.035913 0.172652 1.035913c9.323217 40.573259 49.033215 70.09678 94.440735 70.096779 35.393694 0 75.621649-16.919912 92.196257-38.501433 4.488956-10.531782 4.488956-37.983477 4.488957-49.896476 0-48.687911-43.335694-88.397909-96.685214-88.397909-10.531782 0-31.250042 5.697521-38.156129 7.596695-0.517956 0.172652-0.863261 0.172652-1.208565 0.345304-0.172652 0-0.172652 0.172652-0.345304 0.172652-1.035913 0.690609-2.589782 1.553869-4.661609 2.589783-3.971 2.244478-9.841173 5.352217-17.265216 9.323217-14.33013 7.596695-32.113303 17.092564-50.932389 26.933738z" fill="#C69C6D" p-id="14300"></path><path d="M865.043052 411.775417c15.538695 0 46.961389 9.841173 43.680998 8.632609s32.458607 17.955825 81.837127 43.680998c0 0-17.783173 62.15478-20.372955 67.679649-10.35913 44.716911-53.349519 78.384084-104.972518 78.384084-37.120216 0-82.182431-17.265217-101.519474-43.680998-5.352217-11.049739-5.870174-34.875738-5.870173-55.421346-0.172652-54.903389 47.82465-99.274996 107.216995-99.274996z" fill="#F9E1C5" p-id="14301"></path><path d="M865.043052 620.857191c-37.292868 0-87.016692-16.574608-110.152082-48.169954l-0.517957-0.690609-0.345304-0.863261c-5.870174-11.912999-7.078739-32.631259-7.078739-60.255606 0-29.52352 12.430956-57.147867 34.875738-78.038779 22.272129-20.545608 51.79565-31.940651 83.218344-31.940651 11.912999 0 29.696173 4.488956 43.85365 8.287304 0.517956 0.172652 0.863261 0.172652 1.208566 0.345304 0.863261 0.172652 1.726522 0.345304 2.589782 0.690609 1.208565 0.517956 2.244478 1.035913 3.280391 1.899174 6.560782 3.798348 35.566346 19.337043 79.592649 42.29978l7.769348 4.143652-2.417131 8.459957c-5.179565 17.783173-16.919912 58.529084-20.545608 67.852301-11.912999 49.896476-60.255606 85.980779-115.331647 85.980779z m-92.196257-60.082954c16.574608 21.581521 56.629911 38.501433 92.196257 38.501433 45.40752 0 85.117518-29.52352 94.440735-70.096779l0.345305-1.208566 0.517956-1.035913c1.553869-3.453043 9.668521-30.559433 17.437869-57.493171-18.819086-9.841173-36.774911-19.337043-51.105041-26.933738-7.424043-3.971-13.121565-7.078739-17.265217-9.323217-2.071826-1.208565-3.625695-2.071826-4.661609-2.589783-0.172652 0-0.172652-0.172652-0.345304-0.172652-0.345304-0.172652-0.690609-0.172652-1.208565-0.345304-6.906087-1.899174-27.624347-7.596695-38.156129-7.596695-25.897825 0-50.414433 9.323217-68.54291 26.243129-18.128477 16.74726-27.969651 38.674085-27.969651 62.15478-0.172652 11.912999-0.172652 39.364694 4.316304 49.896476z" fill="#C69C6D" p-id="14302"></path><path d="M673.226495 679.213623v-3.107739c14.848086-1.381217 27.969651-3.625695 38.328781-6.733434l3.971-0.690609-58.18378 53.004215 0.345304-1.381217c9.323217-8.977913 15.538695-23.998651 15.538695-41.091216z" fill="#75320F" p-id="14303"></path><path d="M633.343845 629.144495c-52.313606 0-94.613387 10.877086-94.613388 24.171303 0 6.215478 8.977913 11.740347 23.825999 16.056652 10.35913 2.935087 23.480695 5.352217 38.328781 6.733434 0.517956-11.395043 3.798348-21.754173 8.977913-29.868824-5.006913 8.114652-8.287304 18.30113-8.805261 29.696172v3.107739c0 17.092564 6.215478 32.113303 15.711348 41.263868 2.41713 2.41713 5.179565 4.316304 8.114651 5.870174 1.035913-5.524869 6.215478-9.841173 12.258304-9.841174v-87.189344H633.343845z" fill="#DD8052" p-id="14304"></path><path d="M640.94054 629.144495h-3.280391 1.035913-1.726522v87.189344c6.215478 0 11.222391 4.143652 12.258304 9.841174 2.935087-1.553869 5.697521-3.453043 8.114652-5.870174 9.495869-9.150565 15.711347-24.171303 15.711347-41.263868v-3.107739c-0.863261-19.337043-9.668521-35.738998-22.099477-42.990389 12.430956 7.251391 21.408869 23.653347 22.444781 43.163041 14.848086-1.381217 27.969651-3.798348 38.328781-6.733434 14.848086-4.316304 23.825999-9.841173 23.825999-16.056652 0-13.294217-42.299781-24.171303-94.613387-24.171303z" fill="#DD8052" p-id="14305"></path><path d="M719.324624 786.257967l-69.406171-21.926826v-35.048389c0-1.035913-0.172652-2.071826-0.345305-3.107739-1.381217-5.524869-6.042826-9.495869-12.085651-9.668522v-0.172652h-0.345305c-6.042826 0-11.222391 4.316304-12.603608 9.841174-0.172652 1.035913-0.345304 2.071826-0.345304 3.107739v35.048389l-69.406171 21.926826c-6.906087 2.071826-10.531782 9.495869-8.459956 16.229303 1.726522 5.524869 6.906087 8.977913 12.258303 8.977913 1.208565 0 2.589782-0.172652 3.971-0.690609l74.240432-23.480694 74.758388 23.653346c1.381217 0.345304 2.762435 0.517956 3.971 0.517957 5.352217 0 10.531782-3.453043 12.258304-8.977913 2.071826-6.733434-1.553869-14.157478-8.459956-16.229303z" fill="#C97F5F" p-id="14306"></path><path d="M454.130896 482.044849c9.150565 0 17.783173 1.381217 26.070477 4.143652-10.704434-34.875738-42.990389-60.255606-81.491823-60.255606-46.961389 0-85.117518 38.156129-85.117518 85.117518 0 37.983477 24.861912 70.09678 59.047041 80.973866-2.41713-7.769347-3.625695-16.229304-3.625695-24.861912 0-46.961389 37.983477-85.117518 85.117518-85.117518z" fill="#360D0D" p-id="14307"></path><path d="M483.827068 510.877761c0-8.632608-1.381217-16.919912-3.625695-24.861912-8.287304-2.589782-16.919912-4.143652-26.070477-4.143652-46.961389 0-85.117518 38.156129-85.117518 85.117518 0 8.632608 1.381217 16.919912 3.625695 24.861912 8.287304 2.589782 16.919912 4.143652 26.070477 4.143652 46.961389 0 85.117518-38.156129 85.117518-85.117518z" fill="#774A20" p-id="14308"></path><path d="M411.485811 467.369415m-14.675435 0a14.675434 14.675434 0 1 0 29.350869 0 14.675434 14.675434 0 1 0-29.350869 0Z" fill="#FFFFFF" p-id="14309"></path><path d="M914.939528 482.044849c9.150565 0 17.783173 1.381217 26.070477 4.143652-10.704434-34.875738-42.990389-60.255606-81.491822-60.255606-46.961389 0-85.117518 38.156129-85.117518 85.117518 0 37.983477 24.861912 70.09678 59.047041 80.973866-2.41713-7.769347-3.625695-16.229304-3.625696-24.861912 0-46.961389 38.156129-85.117518 85.117518-85.117518z" fill="#360D0D" p-id="14310"></path><path d="M944.635701 510.877761c0-8.632608-1.381217-16.919912-3.625696-24.861912-8.287304-2.589782-16.919912-4.143652-26.070477-4.143652-46.961389 0-85.117518 38.156129-85.117518 85.117518 0 8.632608 1.381217 16.919912 3.625696 24.861912 8.287304 2.589782 16.919912 4.143652 26.070477 4.143652 47.134041 0 85.117518-38.156129 85.117518-85.117518z" fill="#774A20" p-id="14311"></path><path d="M872.467095 467.369415m-14.675434 0a14.675434 14.675434 0 1 0 29.350868 0 14.675434 14.675434 0 1 0-29.350868 0Z" fill="#FFFFFF" p-id="14312"></path><path d="M563.074413 405.732591l-63.535997-138.294385 25.55252 37.46552-18.646434-55.248693 26.588434 51.968302-7.078739-49.551172 18.128477 55.248694 0.172653-37.465521zM636.278931 462.880459l-29.868824-263.121902 16.401955 75.966953-5.352217-101.17417 13.984826 100.483561 4.83426-85.117518 4.834261 101.001518 9.150565-61.118867zM696.361885 399.171809l12.085652-151.588602 3.971 45.062215 10.877086-57.320519-2.244478 58.356432 17.955826-46.616085-11.049739 56.975215 18.30113-32.458607zM768.185187 379.31681l84.772214-73.377171-21.754173 25.207217 35.048389-25.034565-31.595346 29.178217 32.803911-16.229304-35.048389 24.68926 25.55252-8.805261zM484.517677 379.31681l-110.670039-54.903389 34.530434 11.740347-40.57326-24.343955 43.163042 19.509695-31.07739-25.379869 40.227955 24.516608-20.372956-21.236217z" fill="#FFF0E9" p-id="14313"></path><path d="M390.076942 677.31445c-0.172652 0.345304-0.172652 0.517956-0.345304 0.86326l5.352217-0.517956-5.006913-0.345304zM469.496939 625.000843c-0.172652 0-0.517956 0-0.690609 0.172652l1.381217 0.345305-0.690608-0.517957zM385.415333 690.953971c-0.172652 0.690609-0.345304 1.553869-0.517956 2.244478l12.77626-2.071826-12.258304-0.172652zM386.623899 755.353229v0.345304l3.280391-1.381217-3.280391 1.035913zM383.343507 737.742708c0 0.517956 0.172652 1.208565 0.172653 1.726521l14.502782-5.006912-14.675435 3.280391z" fill="#FFFCF8" p-id="14314"></path><path d="M503.509415 599.793627zM503.509415 599.793627c-0.172652 0.172652-0.172652 0.172652 0 0l1.035913 0.690608-1.035913-0.690608z" fill="#FFF0E9" p-id="14315"></path></svg>